<?xml version="1.0" encoding="utf-8"?><svg width="133" height="57" viewBox="0 0 133 57" xmlns="http://www.w3.org/2000/svg" xmlns:xlink="http://www.w3.org/1999/xlink"><svg version="1" width="42.084" height="47.041" viewBox="0 0 42.084 47.041" id="source--img--icon-os--android-logo" x="46.21"><path fill="#A4C639" d="M34.144 14.01h-26.2c-.008.11-.017.22-.017.332v18.754c0 1.926 1.457 3.49 3.316 3.628v7.433c0 1.594 1.29 2.885 2.885 2.885 1.593 0 2.885-1.29 2.885-2.885v-7.42h8.058v7.42c0 1.594 1.294 2.885 2.887 2.885 1.595 0 2.886-1.29 2.886-2.885v-7.433c1.858-.137 3.315-1.702 3.315-3.628V14.342c0-.113-.004-.223-.013-.333zM2.886 15.68c1.593 0 2.886 1.29 2.886 2.884v12.378c0 1.595-1.292 2.886-2.886 2.886S0 32.538 0 30.942V18.564c0-1.594 1.292-2.885 2.886-2.885zm36.312 0c1.595 0 2.886 1.29 2.886 2.884v12.378c0 1.595-1.29 2.886-2.886 2.886-1.594 0-2.885-1.29-2.885-2.886V18.564c0-1.594 1.29-2.885 2.885-2.885zM8.03 11.967h26.025c-.04-2.783-1.234-5.322-3.186-7.275L33.313.457c.082-.146.032-.33-.112-.415-.146-.084-.33-.034-.415.11l-2.37 4.108c-2.053-1.853-4.82-3.1-7.925-3.4h-2.9c-3.102.3-5.872 1.547-7.924 3.4L9.296.152c-.083-.145-.27-.194-.415-.11-.143.083-.193.27-.11.414l2.446 4.235C9.266 6.647 8.07 9.186 8.03 11.97zm17.293-5.163c-.002-.805.664-1.46 1.49-1.462.824-.002 1.493.648 1.496 1.454v.008c0 .805-.666 1.46-1.49 1.462-.825.002-1.495-.65-1.498-1.454v-.008zm-11.143 0c0-.805.665-1.46 1.49-1.462.823-.002 1.493.648 1.496 1.454v.008c.002.805-.664 1.46-1.488 1.462-.825.002-1.495-.65-1.498-1.454v-.008z"/></svg><svg version="1" width="46.21" height="56.753" viewBox="0 0 46.21 56.753" id="source--img--icon-os--apple-logo"><path fill="#FFF" d="M38.593 30.15c.08 8.59 7.535 11.447 7.617 11.483-.062.202-1.19 4.073-3.927 8.072-2.365 3.457-4.82 6.9-8.688 6.973-3.8.07-5.02-2.253-9.365-2.253-4.344 0-5.702 2.182-9.298 2.323-3.733.142-6.576-3.74-8.96-7.184-4.876-7.046-8.6-19.91-3.598-28.593 2.484-4.31 6.926-7.04 11.743-7.112 3.666-.07 7.126 2.466 9.366 2.466 2.24 0 6.444-3.05 10.865-2.6 1.85.076 7.044.746 10.38 5.628-.27.17-6.197 3.62-6.135 10.8m-7.14-21.088c1.982-2.4 3.316-5.74 2.952-9.062-2.857.115-6.312 1.904-8.36 4.302-1.837 2.123-3.445 5.52-3.01 8.778 3.183.246 6.435-1.62 8.418-4.018"/></svg><svg version="1" width="43.922" height="41.992" viewBox="0 0 43.922 41.992" id="source--img--icon-os--microsoft-logo" x="88.29400000000001"><path fill="#F05423" d="M20.874 19.953H0V0h20.874v19.953z"/><path fill="#84C441" d="M43.922 19.953H23.05V0h20.87v19.953z"/><path fill="#2DABE2" d="M20.873 41.992H0V22.04h20.873v19.952z"/><path fill="#F9BC15" d="M43.922 41.992H23.05V22.04h20.87v19.952z"/></svg></svg>