<?xml version="1.0" encoding="utf-8"?><svg width="638" height="356" viewBox="0 0 638 356" xmlns="http://www.w3.org/2000/svg" xmlns:xlink="http://www.w3.org/1999/xlink"><svg version="1" width="52.08" height="57.04" viewBox="-5 -5 52.08 57.04" id="source--img--svg--android-logo" x="452.88" y="84"><path fill="#A4C639" d="M34.144 14.01h-26.2c-.008.11-.017.22-.017.332v18.754c0 1.926 1.457 3.49 3.316 3.628v7.433c0 1.594 1.29 2.885 2.885 2.885 1.593 0 2.885-1.29 2.885-2.885v-7.42h8.058v7.42c0 1.594 1.294 2.885 2.887 2.885 1.595 0 2.886-1.29 2.886-2.885v-7.433c1.858-.137 3.315-1.702 3.315-3.628V14.342c0-.113-.004-.223-.013-.333zM2.886 15.68c1.593 0 2.886 1.29 2.886 2.884v12.378c0 1.595-1.292 2.886-2.886 2.886S0 32.538 0 30.942V18.564c0-1.594 1.292-2.885 2.886-2.885zm36.312 0c1.595 0 2.886 1.29 2.886 2.884v12.378c0 1.595-1.29 2.886-2.886 2.886-1.594 0-2.885-1.29-2.885-2.886V18.564c0-1.594 1.29-2.885 2.885-2.885zM8.03 11.967h26.025c-.04-2.783-1.234-5.322-3.186-7.275L33.313.457c.082-.146.032-.33-.112-.415-.146-.084-.33-.034-.415.11l-2.37 4.108c-2.053-1.853-4.82-3.1-7.925-3.4h-2.9c-3.102.3-5.872 1.547-7.924 3.4L9.296.152c-.083-.145-.27-.194-.415-.11-.143.083-.193.27-.11.414l2.446 4.235C9.266 6.647 8.07 9.186 8.03 11.97zm17.293-5.163c-.002-.805.664-1.46 1.49-1.462.824-.002 1.493.648 1.496 1.454v.008c0 .805-.666 1.46-1.49 1.462-.825.002-1.495-.65-1.498-1.454v-.008zm-11.143 0c0-.805.665-1.46 1.49-1.462.823-.002 1.493.648 1.496 1.454v.008c.002.805-.664 1.46-1.488 1.462-.825.002-1.495-.65-1.498-1.454v-.008z"/></svg><svg version="1" width="56.21" height="66.75" viewBox="-5 -5 56.21 66.75" id="source--img--svg--apple-logo" x="396.67" y="84"><path fill="#FFF" d="M38.593 30.15c.08 8.59 7.535 11.447 7.617 11.483-.062.202-1.19 4.073-3.927 8.072-2.365 3.457-4.82 6.9-8.688 6.973-3.8.07-5.02-2.253-9.365-2.253-4.344 0-5.702 2.182-9.298 2.323-3.733.142-6.576-3.74-8.96-7.184-4.876-7.046-8.6-19.91-3.598-28.593 2.484-4.31 6.926-7.04 11.743-7.112 3.666-.07 7.126 2.466 9.366 2.466 2.24 0 6.444-3.05 10.865-2.6 1.85.076 7.044.746 10.38 5.628-.27.17-6.197 3.62-6.135 10.8m-7.14-21.088c1.982-2.4 3.316-5.74 2.952-9.062-2.857.115-6.312 1.904-8.36 4.302-1.837 2.123-3.445 5.52-3.01 8.778 3.183.246 6.435-1.62 8.418-4.018"/></svg><svg width="330" height="42" viewBox="-5 -5 330 42" preserveAspectRatio="none" id="source--img--svg--bg-white-arrow" x="308"><title>Triangle 1</title><path fill="#FFF" d="M160 32L320 0H0" fill-rule="evenodd"/></svg><svg height="42" viewBox="-5 -5 330 42" preserveAspectRatio="none" width="330" id="source--img--svg--bg-white-mask" x="308" y="42"><path d="M0 0v32L320 0z" fill="#fff"/></svg><svg version="1" width="38" height="36" viewBox="-3 -2 38 36" id="source--img--svg--blog-post-icon" x="308" y="189.48000000000002"><path fill="#d22856" d="M29 3H3c-.552 0-1 .448-1 1s.448 1 1 1h25v16H15c-.04 0-.076.018-.116.023-.067.008-.13.018-.195.04-.07.02-.13.052-.19.087-.032.02-.07.025-.1.05L8 26v-4c0-.553-.448-1-1-1H4V8c0-.552-.448-1-1-1s-1 .448-1 1v14c0 .553.448 1 1 1h3v5c0 .38.214.725.553.895.14.07.295.105.447.105.212 0 .423-.066.6-.2l7.733-5.8H29c.553 0 1-.447 1-1V4c0-.552-.447-1-1-1z"/></svg><svg version="1" width="18.67" height="28.94" viewBox="-5 -5 18.67 28.94" id="source--img--svg--facebook" x="348.38" y="157.79000000000002"><path fill="#d22856" d="M6.275 3.357h2.398V0H5.795C2.655.18 1.54 2.387 1.948 6.115H0v3.517h1.958v9.312h3.837V9.632h2.857V6.115H5.786c-.02-1.045-.036-2.406.49-2.758z"/></svg><svg version="1" width="36.75" height="36.75" viewBox="-5 -5 36.75 36.75" id="source--img--svg--icon-no" x="308" y="225.48000000000002"><path fill="#f25b26" d="M15.497 13.376L26.312 2.562c.586-.585.586-1.535 0-2.12s-1.535-.587-2.12 0L13.375 11.254 2.562.44c-.586-.587-1.535-.587-2.12 0-.587.584-.587 1.534 0 2.12l10.813 10.815L.44 24.19c-.587.586-.587 1.535 0 2.12.292.294.676.44 1.06.44s.768-.146 1.06-.44l10.816-10.813L24.19 26.312c.293.293.677.44 1.06.44s.77-.147 1.062-.44c.586-.586.586-1.535 0-2.12L15.497 13.375z"/></svg><svg version="1" width="40.38" height="31.69" viewBox="-5 -5 40.38 31.69" id="source--img--svg--icon-yes" x="308" y="157.79000000000002"><path fill="#3dc644" d="M29.936.44c-.586-.587-1.535-.587-2.12 0l-17.63 17.625L2.56 10.44c-.585-.587-1.534-.587-2.12 0s-.586 1.534 0 2.12l8.688 8.688c.293.293.677.44 1.06.44s.77-.147 1.062-.44L29.936 2.56c.585-.585.585-1.535 0-2.12z"/></svg><svg version="1" width="53.92" height="51.99" viewBox="-5 -5 53.92 51.99" id="source--img--svg--microsoft-logo" x="504.96" y="84"><path fill="#F05423" d="M20.874 19.953H0V0h20.874v19.953z"/><path fill="#84C441" d="M43.922 19.953H23.05V0h20.87v19.953z"/><path fill="#2DABE2" d="M20.873 41.992H0V22.04h20.873v19.952z"/><path fill="#F9BC15" d="M43.922 41.992H23.05V22.04h20.87v19.952z"/></svg><svg version="1" width="88.67" height="73.79" viewBox="-5 -5 88.67 73.79" id="source--img--svg--quotes" x="308" y="84"><path d="M72.354 39.632c-2.797-2.4-6.636-3.604-11.518-3.604h-5.67c.473-4.08 1.278-7.397 2.42-9.948 1.142-2.55 2.855-5.044 5.14-7.477 2.363-2.51 4.685-4.53 6.97-6.063 2.283-1.53 5.274-3.356 8.978-5.477L74.42 0c-2.44 1.495-5.474 3.42-9.096 5.78-3.623 2.358-7.048 5.227-10.276 8.606-3.15 3.302-5.83 7.056-8.033 11.26-2.206 4.205-3.308 8.862-3.308 13.97 0 7.233 1.456 13.07 4.37 17.512 2.914 4.44 7.756 6.66 14.53 6.66 4.33 0 7.737-1.435 10.218-4.31s3.72-5.967 3.72-9.273c0-4.646-1.398-8.17-4.19-10.573zM19.02 18.602c2.36-2.51 4.684-4.53 6.97-6.062 2.282-1.53 5.273-3.356 8.977-5.477L30.713 0c-2.44 1.495-5.475 3.42-9.095 5.78-3.624 2.358-7.05 5.227-10.278 8.606-3.15 3.302-5.828 7.056-8.032 11.26C1.103 29.852 0 34.51 0 39.616c0 7.233 1.457 13.07 4.37 17.51 2.913 4.44 7.757 6.663 14.53 6.663 4.33 0 7.737-1.437 10.218-4.31 2.48-2.877 3.722-5.97 3.722-9.275 0-4.646-1.4-8.17-4.194-10.572-2.796-2.4-6.635-3.604-11.517-3.604h-5.673c.473-4.08 1.3-7.417 2.48-10.008 1.182-2.588 2.874-5.062 5.08-7.417z" fill="#efefef"/></svg><svg width="31.71" height="51.72" viewBox="-5 -5 31.71 51.72" id="source--img--svg--review-arrow-left" x="590.59" y="84"><path fill="#bec2c7" d="M2.045 20.86L21.458 1.445c.33-.33.33-.867 0-1.198-.33-.33-.867-.33-1.197 0L.25 20.26c-.33.33-.33.868 0 1.198L20.26 41.47c.165.166.383.25.6.25s.434-.084.6-.25c.33-.33.33-.866 0-1.197L2.044 20.86z"/></svg><svg width="31.71" height="51.72" viewBox="-5 -5 31.71 51.72" id="source--img--svg--review-arrow-right" x="558.88" y="84"><path fill="#bec2c7" d="M19.66 20.86L.25 1.445c-.33-.33-.33-.867 0-1.198.33-.33.867-.33 1.197 0l20.01 20.013c.33.33.33.867 0 1.197L1.446 41.47c-.164.166-.382.25-.6.25s-.433-.084-.598-.25c-.33-.33-.33-.866 0-1.197L19.66 20.86z"/></svg><svg version="1" width="308" height="355.1" viewBox="-5 -5 308 355.1" id="source--img--svg--timer"><path fill="#dedede" d="M293.057 157.98c-5.442-20.657-15.198-39.563-28.273-55.688l8.567-8.563c6.076-6.08 6.076-15.93 0-22-3.332-3.34-7.78-4.657-12.127-4.334-3.596.254-7.146 1.596-9.866 4.333l-8.563 8.56c-9.083-7.355-19.08-13.553-29.734-18.628-9.618-4.558-19.752-8.195-30.34-10.67-.088-.015-.204-.015-.31-.037-4.587-1.065-9.204-1.985-13.962-2.613v-9.44h6.88c10.736 0 19.445-8.71 19.445-19.473 0-10.725-8.71-19.43-19.446-19.43h-53.832c-1.713 0-3.356.287-4.96.696 0 0-.01.03-.02.03-8.326 2.2-14.463 9.714-14.463 18.703 0 10.764 8.71 19.473 19.442 19.473h8.062v9.44C79.47 54.875 37.336 86.338 15.7 129.79c-4.32 8.66-7.893 17.746-10.454 27.24C1.846 169.484 0 182.554 0 196.09c0 64.416 40.952 119.158 98.227 139.945 15.87 5.734 32.922 9.062 50.772 9.062 7.433 0 14.734-.56 21.85-1.633.763-.096 1.485-.32 2.25-.45 20.968-3.433 40.53-11.17 57.598-22.393 23.57-15.494 42.377-37.462 54.08-63.387 8.424-18.7 13.222-39.326 13.222-61.144 0-13.17-1.726-25.936-4.945-38.11zm-66.21 115.963c-14.193 14.19-31.58 23.877-50.54 28.735-6.5 1.626-13.257 2.51-20.066 2.966-.97.06-1.88.23-2.843.24-1.476.073-2.916.3-4.396.3-4.043 0-8.06-.26-12.033-.69-24.86-2.697-47.885-13.608-65.823-31.55C50.35 253.15 38.886 225.49 38.886 196.09c0-2.33.198-4.6.334-6.898 1.658-26.815 12.765-51.82 31.923-70.97 2.383-2.37 4.875-4.594 7.42-6.735l.017-.013c19.75-16.48 44.38-25.5 70.42-25.5 4.76 0 9.44.327 14.052.93 14.462 1.87 28.247 6.57 40.743 13.758.136.083.286.184.41.28 8.15 4.744 15.797 10.446 22.645 17.28 1.608 1.622 3.067 3.335 4.55 5.032.053.054.103.12.166.184 3.025 3.446 5.73 7.14 8.292 10.887 1.63 2.442 3.264 4.894 4.694 7.43 8.845 15.45 13.85 32.853 14.386 51.07.038 1.09.152 2.148.152 3.262-.002 29.4-11.445 57.06-32.242 77.853z"/></svg><svg version="1" width="27.5" height="24.66" viewBox="-5 -5 27.5 24.66" id="source--img--svg--twitter" x="367.05" y="157.79000000000002"><path fill="#d22856" fill-rule="evenodd" clip-rule="evenodd" d="M11.283.153c1.736-.485 3.074.263 3.685 1.15.694-.225 1.372-.47 2.072-.69-.004.84-.538 1.478-.883 1.727.704.166 1.343-.48 1.343-.48-.175.976-1.035 1.746-1.61 1.977-.24 6.592-3.273 10.956-10.383 10.823h-.46c-.422 0-4.29-.45-5.047-1.843 2.34.192 4.01-.412 4.835-1.15-.99-.293-2.76-.464-3.07-2.88.362.104.583.222 1.228.116C1.757 8.067.385 7.366.46 5.218c.295.32 1.1.523 1.382.46C1.117 5.445-.188 2.4.922.844 2.794 2.654 4.77 4.364 8.29 4.53 8.506 2.29 9.46.79 11.283.153z"/></svg><svg version="1" width="24.64" height="23.96" viewBox="-5 -5 24.64 23.96" id="source--img--svg--youtube" x="394.55" y="157.79000000000002"><path fill="#d22856" d="M1.775 13.78C.8 14.257 0 13.758 0 12.67V1.29C0 .202.8-.295 1.775.18l12.133 5.933c.975.478.975 1.258 0 1.736L1.775 13.78z"/></svg></svg>